<svg xmlns="http://www.w3.org/2000/svg" x="0px" y="0px" width="100" height="100" viewBox="0 0 64 64">
<linearGradient id="2Y1XxsPegNiOuMSKFWPuea_It75JPo3qKDs_gr1" x1="45.724" x2="45.405" y1="22.004" y2="34.706" gradientUnits="userSpaceOnUse"><stop offset="0" stop-color="#6dc7ff"></stop><stop offset=".699" stop-color="#e6abff"></stop></linearGradient><rect width="3.573" height="3.953" x="43.837" y="24.036" fill="url(#2Y1XxsPegNiOuMSKFWPuea_It75JPo3qKDs_gr1)"></rect><linearGradient id="2Y1XxsPegNiOuMSKFWPueb_It75JPo3qKDs_gr2" x1="32.45" x2="32.131" y1="21.671" y2="34.373" gradientUnits="userSpaceOnUse"><stop offset="0" stop-color="#6dc7ff"></stop><stop offset=".699" stop-color="#e6abff"></stop></linearGradient><path fill="url(#2Y1XxsPegNiOuMSKFWPueb_It75JPo3qKDs_gr2)" d="M32.13,34.78v-0.87 C32.14,34.08,32.15,34.39,32.13,34.78z"></path><linearGradient id="2Y1XxsPegNiOuMSKFWPuec_It75JPo3qKDs_gr3" x1="22.387" x2="22.067" y1="21.418" y2="34.12" gradientUnits="userSpaceOnUse"><stop offset="0" stop-color="#6dc7ff"></stop><stop offset=".699" stop-color="#e6abff"></stop></linearGradient><path fill="url(#2Y1XxsPegNiOuMSKFWPuec_It75JPo3qKDs_gr3)" d="M32.13,33.91v0.87 c-0.01,0.18-0.03,0.38-0.07,0.58c0,0-0.3,2.94-3.22,3.59H12.12V28.88l3.47,0.28v5.9c0,0,11.71,0,12.52,0 c0.66,0,0.73-0.67,0.73-0.76c0.01-0.76-0.51-0.84-0.79-0.85c0,0-8.63-0.8-8.94-0.83c0,0-1.28-0.25-2.09-1.11 c-0.34-0.37-0.87-1.02-1.09-2.32c0,0,11.6,1.03,12.91,1.16c2.18,0.23,3.19,2.83,3.28,3.42C32.12,33.77,32.12,33.82,32.13,33.91z"></path><linearGradient id="2Y1XxsPegNiOuMSKFWPued_It75JPo3qKDs_gr4" x1="19.052" x2="18.733" y1="21.334" y2="34.036" gradientUnits="userSpaceOnUse"><stop offset="0" stop-color="#6dc7ff"></stop><stop offset=".699" stop-color="#e6abff"></stop></linearGradient><path fill="url(#2Y1XxsPegNiOuMSKFWPued_It75JPo3qKDs_gr4)" d="M31.47,24.02v3.97H6.3 c0,0,1.46-2.66,1.82-3.19c0.34-0.53,0.8-0.76,1.28-0.76c0.47,0,6.35,0,6.35,0v3.63c0,0,0.32-1.39,0.89-2.05 c0.53-0.63,1.24-1.49,2.87-1.6H31.47z"></path><linearGradient id="2Y1XxsPegNiOuMSKFWPuee_It75JPo3qKDs_gr5" x1="5.393" x2="5.073" y1="20.991" y2="33.693" gradientUnits="userSpaceOnUse"><stop offset="0" stop-color="#6dc7ff"></stop><stop offset=".699" stop-color="#e6abff"></stop></linearGradient><polygon fill="url(#2Y1XxsPegNiOuMSKFWPuee_It75JPo3qKDs_gr5)" points="6.16,28.23 10.13,28.7 4.21,38.95 0.01,38.95"></polygon><linearGradient id="2Y1XxsPegNiOuMSKFWPuef_It75JPo3qKDs_gr6" x1="33.993" x2="33.674" y1="21.709" y2="34.411" gradientUnits="userSpaceOnUse"><stop offset="0" stop-color="#6dc7ff"></stop><stop offset=".699" stop-color="#e6abff"></stop></linearGradient><rect width="3.57" height="3.95" x="32.1" y="24.04" fill="url(#2Y1XxsPegNiOuMSKFWPuef_It75JPo3qKDs_gr6)"></rect><linearGradient id="2Y1XxsPegNiOuMSKFWPueg_It75JPo3qKDs_gr7" x1="40.016" x2="39.696" y1="21.86" y2="34.563" gradientUnits="userSpaceOnUse"><stop offset="0" stop-color="#6dc7ff"></stop><stop offset=".699" stop-color="#e6abff"></stop></linearGradient><path fill="url(#2Y1XxsPegNiOuMSKFWPueg_It75JPo3qKDs_gr7)" d="M47.41,29.42c0,0,0,1.78,0,5.5 c0,3.73-3.49,4.05-3.49,4.05h-8.16c-0.04-0.01-0.32-0.03-0.32-0.03s-2.74-0.26-3.31-3.63v-0.53c0.02-0.39,0.01-0.7,0-0.87v-5.64 l3.55,0.29c0,0,0,4.01,0,5.22c0,1.22,1.02,1.31,1.02,1.31s4.9,0,6.04,0c1.15,0,1.16-1.32,1.16-1.32v-4.59L47.41,29.42z"></path><linearGradient id="2Y1XxsPegNiOuMSKFWPueh_It75JPo3qKDs_gr8" x1="32.45" x2="32.131" y1="21.671" y2="34.373" gradientUnits="userSpaceOnUse"><stop offset="0" stop-color="#6dc7ff"></stop><stop offset=".699" stop-color="#e6abff"></stop></linearGradient><path fill="url(#2Y1XxsPegNiOuMSKFWPueh_It75JPo3qKDs_gr8)" d="M32.13,34.78v-0.87 C32.14,34.08,32.15,34.39,32.13,34.78z"></path><linearGradient id="2Y1XxsPegNiOuMSKFWPuei_It75JPo3qKDs_gr9" x1="55.855" x2="55.536" y1="22.259" y2="34.961" gradientUnits="userSpaceOnUse"><stop offset="0" stop-color="#6dc7ff"></stop><stop offset=".699" stop-color="#e6abff"></stop></linearGradient><path fill="url(#2Y1XxsPegNiOuMSKFWPuei_It75JPo3qKDs_gr9)" d="M63.99,24.02v3.97H47.44v-0.32 c0,0,0.32-1.39,0.88-2.05c0.54-0.63,1.25-1.49,2.88-1.6H63.99z"></path><linearGradient id="2Y1XxsPegNiOuMSKFWPuej_It75JPo3qKDs_gr10" x1="56.013" x2="55.693" y1="22.262" y2="34.965" gradientUnits="userSpaceOnUse"><stop offset="0" stop-color="#6dc7ff"></stop><stop offset=".699" stop-color="#e6abff"></stop></linearGradient><path fill="url(#2Y1XxsPegNiOuMSKFWPuej_It75JPo3qKDs_gr10)" d="M63.92,33.77c0,0,0.09,0.73-0.02,1.62 c0,0-0.46,3.39-3.67,3.59H47.44v-3.94c0,0,11.62,0,12.43,0c0.29,0,0.59-0.19,0.59-0.19c0.13-0.13,0.24-0.37,0.24-0.6 c0-0.75-0.56-0.79-0.84-0.8c0,0-8.73-0.82-9.04-0.84c0,0-1.21-0.21-2.02-1.07c-0.35-0.37-0.81-0.78-1.16-2.11 c0,0,11.67,0.76,12.97,0.9C62.8,30.56,63.82,32.97,63.92,33.77z"></path><g><linearGradient id="2Y1XxsPegNiOuMSKFWPuek_It75JPo3qKDs_gr11" x1="53.919" x2="53.919" y1="11.553" y2="45.092" gradientUnits="userSpaceOnUse"><stop offset=".272" stop-color="#1a6dff"></stop><stop offset=".695" stop-color="#c822ff"></stop></linearGradient><path fill="url(#2Y1XxsPegNiOuMSKFWPuek_It75JPo3qKDs_gr11)" d="M51.197,23.517l-0.033,0.001 c-1.812,0.122-2.647,1.107-3.214,1.775c-0.012,0.014-0.023,0.032-0.035,0.047v-1.81h-4.578v4.959h3.605h0.973H64.5v-4.973H51.197z M46.915,27.49h-2.578v-2.959h2.578V27.49z M63.5,27.49H48.003c0.13-0.455,0.385-1.178,0.723-1.565 c0.495-0.583,1.111-1.309,2.489-1.407H63.5V27.49z"></path><linearGradient id="2Y1XxsPegNiOuMSKFWPuel_It75JPo3qKDs_gr12" x1="31.795" x2="31.795" y1="11.553" y2="45.092" gradientUnits="userSpaceOnUse"><stop offset=".294" stop-color="#1a6dff"></stop><stop offset=".797" stop-color="#c822ff"></stop></linearGradient><path fill="url(#2Y1XxsPegNiOuMSKFWPuel_It75JPo3qKDs_gr12)" d="M60.665,29.833L60.665,29.833 c-1.301-0.136-12.51-0.869-12.986-0.9l-0.687-0.045l0,0.001l-3.601-0.236v5.117c-0.003,0.194-0.06,0.821-0.657,0.821l-5.974,0.003 c-0.138-0.018-0.587-0.127-0.587-0.809V28.1l-0.002,0v-4.563H31.97v-0.019l-12.492,0.001c-1.814,0.121-2.643,1.1-3.214,1.775 c-0.008,0.008-0.015,0.017-0.022,0.025v-1.775h-6.84c-0.485,0-1.174,0.172-1.687,0.973c-0.374,0.526-1.703,2.958-1.854,3.233 l-0.067,0.123l-6.658,11.569h5.371l6.312-10.953h0.803v10.953h17.276l0.053-0.012c1.692-0.372,2.653-1.492,3.153-2.536 c1.068,2.297,3.268,2.544,3.313,2.547c0.003,0,0.188,0.009,0.23,0.014l0.121,0.015l8.194-0.002 c0.829-0.075,2.103-0.514,2.979-1.584v1.599h0.5l12.82-0.001c2.864-0.182,3.95-2.713,4.123-4.023 c0.131-0.954,0.032-1.72,0.028-1.745C64.308,32.809,63.178,30.098,60.665,29.833z M48.346,31.785l0.092,0.098 c0.908,0.969,2.239,1.203,2.335,1.218c0.312,0.027,9.031,0.843,9.054,0.844c0.341,0.017,0.368,0.062,0.368,0.304 c0,0.081-0.027,0.157-0.056,0.205c-0.088,0.042-0.203,0.084-0.274,0.084H47.915v-3.255C48.067,31.491,48.215,31.647,48.346,31.785z M32.596,24.536h2.576v2.953h-2.576V24.536z M17.051,25.911c0.517-0.61,1.102-1.302,2.46-1.394H30.97v2.973H16.306 C16.441,27.032,16.705,26.307,17.051,25.911z M31.636,28.49l0.003,3.111c-0.619-0.845-1.531-1.619-2.758-1.741 c-1.233-0.129-11.506-1.046-12.789-1.16l-0.023-0.002c-0.027-0.002-0.009-0.208-0.009-0.208H31.636z M16.655,31.855 c0.904,0.965,2.308,1.24,2.393,1.256c0.302,0.041,8.076,0.751,8.981,0.833c0.213,0.011,0.314,0.03,0.315,0.341 c-0.009,0.104-0.051,0.279-0.236,0.279H16.092v-3.458C16.308,31.466,16.521,31.705,16.655,31.855z M8.543,25.076 c0.229-0.358,0.511-0.532,0.858-0.532h5.84v2.946H7.146C7.639,26.599,8.317,25.395,8.543,25.076z M3.929,38.442H0.864l5.568-9.673 l2.877,0.336L3.929,38.442z M15.241,28.629 M31.558,35.299c-0.012,0.104-0.307,2.569-2.77,3.144H12.622v-9.025l2.47,0.203v5.944 h13.017c0.934,0,1.235-0.85,1.235-1.262c0-0.81-0.473-1.317-1.243-1.355c-3.456-0.315-8.683-0.796-8.891-0.823 c-0.012-0.002-1.147-0.229-1.816-0.944c-0.199-0.224-0.572-0.642-0.817-1.434c2.515,0.225,11.11,0.993,12.202,1.107l0.002,0 c1.922,0.191,2.793,2.654,2.844,2.953c0.001,0.009,0.012,0.171,0.012,0.427C31.636,34.611,31.611,34.951,31.558,35.299z M46.915,34.929c0,3.212-2.919,3.531-2.997,3.541h-8.133c-0.117-0.013-0.282-0.024-0.294-0.025 c-0.105-0.011-2.367-0.291-2.855-3.135v-6.492l2.538,0.205v4.764c0,1.318,0.973,1.757,1.533,1.806h6.027 c1.216,0,1.657-1.088,1.657-1.819v-4.052l2.523,0.166V34.929z M63.396,35.324c-0.018,0.122-0.443,2.985-3.164,3.159H47.942v-2.946 h11.922c0.404,0,0.786-0.219,0.858-0.263l0.094-0.074c0.233-0.233,0.378-0.598,0.378-0.952c0-0.463-0.172-1.247-1.297-1.301 c0,0-8.725-0.816-8.998-0.838c-0.011-0.001-1.063-0.196-1.73-0.908l-0.099-0.105c-0.235-0.249-0.495-0.522-0.728-1.117 c2.571,0.169,11.125,0.734,12.218,0.848c1.931,0.204,2.79,2.4,2.861,3.011C63.423,33.844,63.507,34.51,63.396,35.324z"></path></g>
</svg>